<!DOCTYPE svg PUBLIC "-//W3C//DTD SVG 20010904//EN" "http://www.w3.org/TR/2001/REC-SVG-20010904/DTD/svg10.dtd">
<svg version="1.0" xmlns="http://www.w3.org/2000/svg" width="1444px" height="1410px" viewBox="0 0 14440 14100" preserveAspectRatio="xMidYMid meet">
<g id="layer1" fill="#000000" stroke="none">
 <path d="M4590 12993 c-24 -9 -61 -45 -76 -76 -10 -19 -15 -61 -15 -140 1 -132 26 -288 106 -644 203 -897 321 -1588 476 -2788 21 -164 31 -289 32 -395 2 -151 1 -156 -25 -206 -27 -52 -49 -66 -115 -78 -29 -5 -119 4 -353 35 -124 16 -740 26 -1139 18 -792 -17 -979 -42 -1371 -187 -353 -130 -548 -247 -774 -463 -239 -228 -336 -423 -336 -673 0 -169 28 -269 140 -501 176 -365 571 -856 1234 -1535 786 -804 1536 -1427 2466 -2047 563 -375 1127 -671 1568 -824 374 -129 652 -190 1162 -254 351 -44 415 -67 467 -172 l28 -58 1 -505 c1 -522 6 -601 42 -649 37 -50 98 -43 158 17 64 63 89 245 89 642 0 236 -3 284 -19 340 -34 120 -36 145 -20 207 31 118 63 132 333 144 258 11 466 43 754 115 412 103 770 235 1162 429 243 120 410 223 555 345 406 341 757 727 913 1007 188 335 327 798 383 1273 20 176 24 537 5 660 -33 226 -111 491 -215 733 -165 381 -424 686 -764 900 -53 33 -198 110 -322 170 -277 134 -346 178 -361 227 -34 119 -71 662 -101 1490 -18 518 -17 1856 2 2040 22 211 20 274 -7 301 -26 26 -105 37 -155 20 -79 -26 -158 -140 -192 -276 -30 -119 -41 -410 -40 -1070 0 -632 10 -993 39 -1396 28 -381 52 -536 98 -623 29 -57 30 -144 1 -183 -55 -74 -152 -84 -394 -39 -373 69 -634 140 -752 203 -89 48 -109 128 -164 633 -19 184 -46 434 -59 556 -34 313 -81 829 -106 1174 -29 401 -24 680 15 820 58 207 70 299 45 354 -24 51 -97 51 -171 0 -94 -65 -180 -171 -204 -250 -83 -277 1 -1654 162 -2629 13 -82 27 -208 30 -280 5 -123 4 -133 -18 -175 -17 -33 -33 -48 -61 -59 -38 -14 -104 -8 -302 28 -63 12 -266 13 -323 2 -68 -13 -130 3 -174 46 -61 59 -92 157 -138 426 -50 299 -105 563 -186 912 -240 1021 -421 1516 -633 1734 -122 125 -258 133 -425 23 -176 -116 -296 -296 -429 -642 -218 -568 -361 -1357 -397 -2190 -21 -474 -54 -723 -117 -884 -20 -50 -39 -94 -43 -99 -8 -9 -72 205 -94 315 -34 167 -56 397 -66 681 -20 597 -56 964 -150 1542 -64 393 -135 765 -221 1165 -103 480 -164 774 -199 970 -39 221 -45 241 -74 273 -22 24 -32 27 -88 26 -35 0 -70 -3 -78 -6z m2202 -1483 c53 -59 112 -208 222 -560 52 -168 102 -325 111 -350 42 -116 217 -889 314 -1380 92 -469 109 -575 98 -596 -21 -39 -52 -65 -97 -78 -40 -12 -54 -12 -101 0 -40 11 -170 17 -504 24 -591 13 -743 28 -795 80 -32 32 -43 96 -41 250 6 527 239 1702 457 2307 113 315 229 420 336 303z m-1728 -3128 c58 -8 73 -15 103 -44 29 -29 36 -46 48 -114 8 -43 15 -119 15 -169 1 -340 118 -1054 201 -1230 26 -56 93 -95 162 -95 78 0 131 79 167 252 32 155 48 283 65 513 21 304 53 572 78 674 41 160 20 157 947 153 393 -1 716 -5 718 -7 5 -5 16 -59 47 -245 33 -194 50 -333 80 -655 14 -148 35 -346 45 -440 49 -433 83 -1013 125 -2100 39 -1017 66 -1476 111 -1875 36 -315 24 -395 -68 -474 -56 -48 -79 -52 -144 -21 -40 19 -111 34 -276 60 -297 47 -511 100 -838 208 -581 193 -987 392 -1530 752 -982 650 -2136 1651 -2929 2539 -528 592 -803 1011 -851 1296 -31 185 100 433 298 563 244 159 710 344 1022 406 154 30 300 41 905 65 171 7 1434 -4 1499 -12z m3331 -7 c167 -19 341 -50 407 -73 46 -15 55 -23 76 -65 29 -58 67 -251 82 -412 32 -349 64 -580 124 -890 19 -99 51 -299 71 -445 20 -146 58 -413 85 -595 103 -694 135 -1124 94 -1265 -8 -30 -18 -67 -21 -81 -12 -60 101 -129 210 -129 29 0 91 10 140 22 84 21 87 23 87 50 0 115 -64 792 -106 1118 -33 257 -173 1152 -235 1505 -102 573 -129 742 -136 832 -7 114 3 145 61 172 38 18 46 19 123 6 197 -32 809 -230 929 -300 33 -19 46 -34 54 -63 13 -48 55 -370 75 -587 22 -234 60 -511 95 -690 16 -82 41 -233 55 -335 22 -155 117 -756 220 -1386 29 -179 60 -265 115 -319 36 -36 43 -38 98 -38 81 0 180 55 227 126 15 23 15 35 5 99 -6 40 -28 134 -49 208 -94 327 -162 684 -307 1605 -96 609 -98 623 -98 795 0 144 3 182 17 212 67 144 220 90 496 -177 370 -357 591 -767 682 -1264 26 -139 37 -483 20 -631 -37 -325 -180 -820 -314 -1086 -169 -335 -510 -706 -914 -992 -285 -202 -639 -385 -1019 -528 -378 -141 -1079 -284 -1414 -288 l-125 -1 -12 245 c-26 538 -64 1376 -78 1740 -50 1282 -85 1828 -180 2800 -49 501 -67 742 -67 914 l-1 150 32 28 c31 27 34 28 149 28 64 0 176 -7 247 -15z"/>
 </g>
<g id="layer2" fill="#fefefe" stroke="none">
 <path d="M0 7050 l0 -7050 7220 0 7220 0 0 7050 0 7050 -7220 0 -7220 0 0 -7050z m4756 5923 c29 -32 35 -52 74 -273 35 -196 96 -490 199 -970 86 -400 157 -772 221 -1165 94 -578 130 -945 150 -1542 10 -284 32 -514 66 -681 22 -110 86 -324 94 -315 4 5 23 49 43 99 63 161 96 410 117 884 36 833 179 1622 397 2190 133 346 253 526 429 642 167 110 303 102 425 -23 212 -218 393 -713 633 -1734 81 -349 136 -613 186 -912 46 -269 77 -367 138 -426 44 -43 106 -59 174 -46 57 11 260 10 323 -2 198 -36 264 -42 302 -28 28 11 44 26 61 59 22 42 23 52 18 175 -3 72 -17 198 -30 280 -161 975 -245 2352 -162 2629 24 79 110 185 204 250 74 51 147 51 171 0 25 -55 13 -147 -45 -354 -39 -140 -44 -419 -15 -820 25 -345 72 -861 106 -1174 13 -122 40 -372 59 -556 41 -378 57 -471 93 -551 28 -64 60 -86 191 -133 205 -73 714 -179 859 -178 91 0 130 15 167 65 29 39 28 126 -1 183 -46 87 -70 242 -98 623 -29 403 -39 764 -39 1396 -1 660 10 951 40 1070 34 136 113 250 192 276 50 17 129 6 155 -20 27 -27 29 -90 7 -301 -19 -184 -20 -1522 -2 -2040 30 -828 67 -1371 101 -1490 15 -49 84 -93 361 -227 124 -60 269 -137 322 -170 340 -214 599 -519 764 -900 104 -242 182 -507 215 -733 19 -123 15 -484 -5 -660 -56 -475 -195 -938 -383 -1273 -156 -280 -507 -666 -913 -1007 -145 -122 -312 -225 -555 -345 -392 -194 -750 -326 -1162 -429 -288 -72 -496 -104 -754 -115 -270 -12 -302 -26 -333 -144 -16 -62 -14 -87 20 -207 16 -56 19 -104 19 -340 0 -397 -25 -579 -89 -642 -60 -60 -121 -67 -158 -17 -36 48 -41 127 -42 649 l-1 505 -28 58 c-52 105 -116 128 -467 172 -510 64 -788 125 -1162 254 -441 153 -1005 449 -1568 824 -930 620 -1680 1243 -2466 2047 -663 679 -1058 1170 -1234 1535 -112 232 -140 332 -140 501 0 250 97 445 336 673 226 216 421 333 774 463 392 145 579 170 1371 187 399 8 1015 -2 1139 -18 234 -31 324 -40 353 -35 66 12 88 26 115 78 26 50 27 55 25 206 -1 106 -11 231 -32 395 -155 1200 -273 1891 -476 2788 -80 356 -105 512 -106 644 0 120 8 149 53 189 31 29 43 32 116 33 56 1 66 -2 88 -26z"/>
 <path d="M6662 11544 c-71 -36 -136 -142 -206 -337 -218 -605 -451 -1780 -457 -2307 -2 -154 9 -218 41 -250 52 -52 204 -67 795 -80 334 -7 464 -13 504 -24 85 -22 161 7 198 78 11 21 -6 127 -98 596 -97 491 -272 1264 -314 1380 -9 25 -59 182 -111 350 -169 540 -235 653 -352 594z"/>
 <path d="M3565 8394 c-605 -24 -751 -35 -905 -65 -312 -62 -778 -247 -1022 -406 -198 -130 -329 -378 -298 -563 48 -285 323 -704 851 -1296 682 -764 1669 -1646 2564 -2289 788 -567 1381 -862 2186 -1090 228 -65 302 -81 547 -120 165 -26 236 -41 276 -60 65 -31 88 -27 144 21 92 79 104 159 68 474 -45 399 -72 858 -111 1875 -42 1087 -76 1667 -125 2100 -10 94 -31 292 -45 440 -30 322 -47 461 -80 655 -31 186 -42 240 -47 245 -2 2 -325 6 -718 7 -765 3 -824 0 -892 -46 -29 -19 -36 -33 -55 -107 -25 -102 -57 -370 -78 -674 -17 -230 -33 -358 -65 -513 -24 -112 -50 -176 -92 -219 -26 -27 -39 -33 -75 -33 -69 0 -136 39 -162 95 -83 176 -200 890 -201 1230 0 50 -7 126 -15 169 -12 68 -19 85 -48 114 -30 29 -45 36 -103 44 -65 8 -1328 19 -1499 12z"/>
 <path d="M7999 8362 l-32 -28 1 -150 c0 -172 18 -413 67 -914 95 -972 130 -1518 180 -2800 14 -364 52 -1202 78 -1740 l12 -245 125 1 c335 4 1036 147 1414 288 604 227 1089 526 1466 905 215 216 367 416 467 615 134 266 277 761 314 1086 17 148 6 492 -20 631 -91 497 -312 907 -682 1264 -276 267 -429 321 -496 177 -14 -30 -17 -68 -17 -212 0 -172 2 -186 98 -795 145 -921 213 -1278 307 -1605 21 -74 43 -168 49 -208 10 -64 10 -76 -5 -99 -47 -71 -146 -126 -227 -126 -55 0 -62 2 -98 38 -55 54 -86 140 -115 319 -103 630 -198 1231 -220 1386 -14 102 -39 253 -55 335 -35 179 -73 456 -95 690 -20 217 -62 539 -75 587 -8 29 -21 44 -54 63 -120 70 -732 268 -929 300 -77 13 -85 12 -123 -6 -94 -45 -93 -59 75 -1004 62 -353 202 -1248 235 -1505 42 -326 106 -1003 106 -1118 0 -27 -3 -29 -87 -50 -49 -12 -111 -22 -140 -22 -109 0 -222 69 -210 129 3 14 13 51 21 81 41 141 9 571 -94 1265 -27 182 -65 449 -85 595 -20 146 -52 346 -71 445 -60 310 -92 541 -124 890 -15 161 -53 354 -82 412 -21 42 -30 50 -76 65 -123 42 -469 88 -654 88 -115 0 -118 -1 -149 -28z"/>
 </g>

</svg>